<mxfile host="app.diagrams.net" modified="2023-09-22T11:38:44.129Z" agent="Mozilla/5.0 (Macintosh; Intel Mac OS X 10_15_7) AppleWebKit/605.1.15 (KHTML, like Gecko) Version/16.6 Safari/605.1.15" version="21.7.4" etag="U4Dke4a1yGf2KoT-gcOC" type="github">
  <diagram name="Strona-1" id="qCner-i91eknJ_GsYf-1">
    <mxGraphModel>
      <root>
        <mxCell id="0" />
        <mxCell id="1" parent="0" />
      </root>
    </mxGraphModel>
  </diagram>
</mxfile>
